<svg xmlns="http://www.w3.org/2000/svg" width="1600" height="1000" viewBox="0 0 1600 1000" role="img" aria-label="Chitin molecular structure diagram">
  <defs>
    <linearGradient id="bg" x1="0" y1="0" x2="1" y2="1">
      <stop offset="0" stop-color="#fbfaf7"/>
      <stop offset="0.55" stop-color="#ffffff"/>
      <stop offset="1" stop-color="#fbfaf7"/>
    </linearGradient>
    <linearGradient id="metal" x1="0" y1="0" x2="1" y2="0">
      <stop offset="0" stop-color="#e7ddc8"/>
      <stop offset="0.5" stop-color="#bda46a"/>
      <stop offset="1" stop-color="#c8cdd6"/>
    </linearGradient>
    <filter id="shadow" x="-20%" y="-20%" width="140%" height="140%">
      <feGaussianBlur stdDeviation="10" result="b"/>
      <feColorMatrix in="b" type="matrix"
        values="0 0 0 0 0
                0 0 0 0 0
                0 0 0 0 0
                0 0 0 0.18 0" result="s"/>
      <feMerge>
        <feMergeNode in="s"/>
        <feMergeNode in="SourceGraphic"/>
      </feMerge>
    </filter>
  </defs>

  <rect width="1600" height="1000" rx="34" fill="url(#bg)"/>

  <g font-family="ui-sans-serif, system-ui, -apple-system, Segoe UI, Roboto, Inter, Arial">
    <text x="80" y="120" font-size="30" font-weight="750" fill="#0f0f10">Chitin (²-1’4 linked N-acetylglucosamine)</text>
    <text x="80" y="160" font-size="16" fill="#0f0f10" opacity="0.62">
      Visual aid (stylized): repeating sugar units and the N-acetyl group that distinguishes chitin.
    </text>
  </g>

  <!-- Polymer backbone line -->
  <line x1="160" y1="520" x2="1440" y2="520" stroke="#0f0f10" stroke-opacity="0.10" stroke-width="10" stroke-linecap="round"/>

  <!-- Repeating units -->
  <g filter="url(#shadow)">
    <g transform="translate(250 520)">
      <polygon points="0,-110 95,-55 95,55 0,110 -95,55 -95,-55" fill="#ffffff" opacity="0.75" stroke="url(#metal)" stroke-width="6"/>
      <text x="-24" y="10" font-size="18" font-weight="700" fill="#0f0f10" opacity="0.8">GlcNAc</text>
      <circle cx="140" cy="0" r="10" fill="#bda46a" opacity="0.9"/>
      <text x="162" y="6" font-size="14" fill="#0f0f10" opacity="0.62">²-1’4</text>
    </g>
    <g transform="translate(520 520)">
      <polygon points="0,-110 95,-55 95,55 0,110 -95,55 -95,-55" fill="#ffffff" opacity="0.75" stroke="url(#metal)" stroke-width="6"/>
      <text x="-24" y="10" font-size="18" font-weight="700" fill="#0f0f10" opacity="0.8">GlcNAc</text>
      <circle cx="140" cy="0" r="10" fill="#bda46a" opacity="0.9"/>
      <text x="162" y="6" font-size="14" fill="#0f0f10" opacity="0.62">²-1’4</text>
    </g>
    <g transform="translate(790 520)">
      <polygon points="0,-110 95,-55 95,55 0,110 -95,55 -95,-55" fill="#ffffff" opacity="0.75" stroke="url(#metal)" stroke-width="6"/>
      <text x="-24" y="10" font-size="18" font-weight="700" fill="#0f0f10" opacity="0.8">GlcNAc</text>
      <circle cx="140" cy="0" r="10" fill="#bda46a" opacity="0.9"/>
      <text x="162" y="6" font-size="14" fill="#0f0f10" opacity="0.62">²-1’4</text>
    </g>
    <g transform="translate(1060 520)">
      <polygon points="0,-110 95,-55 95,55 0,110 -95,55 -95,-55" fill="#ffffff" opacity="0.75" stroke="url(#metal)" stroke-width="6"/>
      <text x="-24" y="10" font-size="18" font-weight="700" fill="#0f0f10" opacity="0.8">GlcNAc</text>
      <circle cx="140" cy="0" r="10" fill="#bda46a" opacity="0.9"/>
      <text x="162" y="6" font-size="14" fill="#0f0f10" opacity="0.62">²-1’4</text>
    </g>
    <g transform="translate(1330 520)">
      <polygon points="0,-110 95,-55 95,55 0,110 -95,55 -95,-55" fill="#ffffff" opacity="0.75" stroke="url(#metal)" stroke-width="6"/>
      <text x="-24" y="10" font-size="18" font-weight="700" fill="#0f0f10" opacity="0.8">GlcNAc</text>
    </g>
  </g>

  <!-- N-acetyl highlight -->
  <g transform="translate(520 520)" opacity="0.95">
    <path d="M-30,-140 C-10,-190 60,-200 90,-170 C60,-135 10,-120 -30,-140 Z" fill="#bda46a" opacity="0.35"/>
    <text x="-40" y="-205" font-family="ui-sans-serif, system-ui, -apple-system, Segoe UI, Roboto, Inter, Arial" font-size="14" fill="#0f0f10" opacity="0.65">
      N-acetyl group (chitin)
    </text>
  </g>
</svg>

